<?xml version="1.0" encoding="UTF-8" standalone="no"?>
<svg
   xmlns:dc="http://purl.org/dc/elements/1.1/"
   xmlns:cc="http://creativecommons.org/ns#"
   xmlns:rdf="http://www.w3.org/1999/02/22-rdf-syntax-ns#"
   xmlns:svg="http://www.w3.org/2000/svg"
   xmlns="http://www.w3.org/2000/svg"
   xmlns:sodipodi="http://sodipodi.sourceforge.net/DTD/sodipodi-0.dtd"
   xmlns:inkscape="http://www.inkscape.org/namespaces/inkscape"
   version="1.0"
   width="471.000000pt"
   height="489.000000pt"
   viewBox="0 0 471.000000 489.000000"
   preserveAspectRatio="xMidYMid meet"
   id="svg10"
   sodipodi:docname="icon_grey.svg"
   inkscape:version="0.92.5 (2060ec1f9f, 2020-04-08)">
  <metadata
     id="metadata16">
    <rdf:RDF>
      <cc:Work
         rdf:about="">
        <dc:format>image/svg+xml</dc:format>
        <dc:type
           rdf:resource="http://purl.org/dc/dcmitype/StillImage" />
      </cc:Work>
    </rdf:RDF>
  </metadata>
  <defs
     id="defs14" />
  <sodipodi:namedview
     pagecolor="#ffffff"
     bordercolor="#666666"
     borderopacity="1"
     objecttolerance="10"
     gridtolerance="10"
     guidetolerance="10"
     inkscape:pageopacity="0"
     inkscape:pageshadow="2"
     inkscape:window-width="1419"
     inkscape:window-height="793"
     id="namedview12"
     showgrid="false"
     inkscape:zoom="0.36196319"
     inkscape:cx="-192.95763"
     inkscape:cy="326"
     inkscape:window-x="164"
     inkscape:window-y="89"
     inkscape:window-maximized="0"
     inkscape:current-layer="g8" />
  <g
     transform="translate(0.000000,489.000000) scale(0.100000,-0.100000)"
     fill="#000000"
     stroke="none"
     id="g8">
    <path
       d="M2070 4830 c-161 -10 -241 -24 -370 -66 l-105 -33 3 -2283 c2 -1256 6 -2286 10 -2289 10 -10 219 -56 355 -79 205 -35 389 -45 565 -31 162 12 357 45 502 83 l85 23 0 1257 c0 691 -4 1260 -8 1265 -11 11 -723 11 -734 0 -4 -5 -8 -107 -8 -227 0 -182 3 -222 15 -234 11 -11 49 -17 138 -22 l122 -7 0 -813 0 -812 -52 -13 c-77 -19 -413 -18 -453 2 -30 14 -30 15 -39 124 -11 140 -13 3311 -2 3507 l8 148 41 11 c44 12 435 7 473 -6 18 -6 22 -17 28 -88 3 -45 6 -266 6 -492 1 -428 10 -612 32 -627 7 -4 108 -7 223 -5 l210 2 3 811 2 810 -137 32 c-76 18 -167 37 -203 42 -88 14 -555 20 -710 10z"
       id="path2"
       style="fill:#a2aaad;opacity:1;fill-opacity:1" />
    <path
       d="M1371 4650 c-177 -86 -378 -237 -577 -435 -332 -331 -553 -710 -658 -1130 -136 -545 -84 -1125 145 -1612 56 -122 84 -163 108 -163 42 0 381 181 381 204 0 7 -23 68 -50 137 -87 213 -144 413 -153 529 l-2 34 60 8 c33 5 134 7 225 6 l165 -3 6 -40 c4 -22 10 -407 14 -856 l7 -816 152 -91 c177 -106 282 -159 293 -148 11 10 16 4322 5 4372 -4 21 -14 40 -22 42 -8 1 -53 -16 -99 -38z m-344 -1438 l6 -492 -229 2 -229 3 -3 50 c-8 117 51 312 157 530 102 207 257 433 282 408 5 -5 12 -213 16 -501z"
       id="path4"
       style="fill:#a2aaad;opacity:1;fill-opacity:1" />
    <path
       d="M3237 4448 c-4 -116 -7 -669 -7 -1230 l0 -1018 78 0 c159 0 846 -20 850 -25 3 -2 -1 -39 -8 -82 -23 -150 -125 -424 -227 -613 -75 -140 -182 -284 -198 -268 -3 2 -12 113 -20 247 -9 133 -20 252 -25 265 -12 32 -41 36 -249 36 -137 0 -182 -3 -197 -14 -18 -14 -19 -34 -22 -633 -4 -687 1 -881 25 -890 43 -17 304 155 553 365 505 423 801 960 859 1556 6 60 11 200 11 312 l0 202 -217 6 c-358 11 -700 26 -716 31 -19 8 -28 312 -20 682 5 245 8 283 21 281 28 -5 116 -135 201 -295 122 -229 161 -293 179 -300 42 -17 382 102 408 142 14 21 13 30 -11 102 -57 169 -179 390 -315 568 -75 99 -321 348 -441 447 -167 138 -460 338 -494 338 -9 0 -14 -59 -18 -212z"
       id="path6"
       style="fill:#a2aaad;opacity:1;fill-opacity:1" />
  </g>
</svg>
