<?xml version="1.0" standalone="no"?>
<!DOCTYPE svg PUBLIC "-//W3C//DTD SVG 20010904//EN"
 "http://www.w3.org/TR/2001/REC-SVG-20010904/DTD/svg10.dtd">
<svg version="1.0" xmlns="http://www.w3.org/2000/svg"
 width="489.000000pt" height="489.000000pt" viewBox="0 0 489.000000 489.000000"
 preserveAspectRatio="xMidYMid meet">
<metadata>
Created by potrace 1.11, written by Peter Selinger 2001-2013
</metadata>
<g transform="translate(0.000000,489.000000) scale(0.100000,-0.100000)"
fill="#000000" stroke="none">
<path d="M2207 4834 c-1 -1 -42 -5 -92 -8 -49 -3 -101 -8 -115 -11 -14 -3 -41
-7 -60 -10 -19 -2 -85 -20 -146 -40 l-112 -35 5 -638 c2 -350 5 -1379 6 -2286
l2 -1650 50 -13 c140 -36 381 -78 510 -90 139 -13 496 -5 525 12 3 1 28 5 55
9 52 6 208 37 280 56 66 18 70 18 81 19 24 2 23 2506 -1 2530 -8 7 -721 8
-729 1 -12 -12 -16 -75 -17 -240 0 -173 7 -225 34 -236 15 -5 102 -11 192 -13
l60 -1 0 -812 0 -812 -45 -14 c-31 -10 -102 -14 -230 -15 -199 0 -269 10 -269
41 0 9 -3 130 -8 267 -9 296 -10 2725 -1 3169 6 313 7 323 43 327 6 0 19 2 30
5 74 16 453 -1 473 -21 4 -3 7 -205 8 -448 2 -574 10 -723 39 -747 12 -10 184
-15 381 -11 l52 1 1 348 c2 402 4 1252 2 1268 -1 6 -36 19 -78 29 -43 10 -82
20 -88 21 -59 15 -125 27 -225 40 -49 6 -606 14 -613 8z"/>
<path d="M1507 4670 c-27 -10 -55 -24 -63 -30 -8 -7 -14 -9 -14 -5 0 5 -8 2
-17 -7 -10 -8 -40 -25 -67 -39 -26 -13 -50 -30 -53 -36 -3 -7 -10 -13 -17 -13
-12 0 -183 -130 -252 -192 -78 -69 -264 -258 -264 -268 0 -5 -8 -10 -17 -10
-9 0 -14 -3 -10 -6 3 -4 1 -12 -6 -19 -14 -14 -39 -46 -135 -170 -4 -5 -18
-27 -31 -47 -12 -21 -27 -38 -32 -38 -6 0 -7 -4 -4 -10 3 -5 1 -10 -5 -10 -6
0 -8 -4 -5 -10 3 -5 1 -10 -4 -10 -6 0 -11 -7 -11 -15 0 -8 -5 -15 -11 -15 -5
0 -7 -5 -4 -10 3 -6 -1 -13 -9 -16 -9 -3 -14 -10 -11 -14 3 -5 -1 -14 -8 -22
-14 -14 -89 -163 -89 -175 0 -4 -7 -16 -16 -27 -9 -10 -16 -21 -16 -25 2 -6
-9 -37 -23 -71 -3 -8 -5 -18 -5 -22 1 -5 -3 -8 -10 -8 -6 0 -9 -3 -6 -6 4 -3
0 -20 -7 -39 -8 -18 -11 -35 -8 -39 4 -3 1 -6 -6 -6 -7 0 -11 -7 -8 -15 4 -8
3 -17 -2 -19 -8 -5 -36 -115 -33 -128 1 -5 -1 -8 -5 -8 -5 0 -9 -16 -11 -36
-1 -20 -5 -41 -9 -48 -4 -6 -8 -20 -9 -31 0 -11 -3 -32 -7 -45 -6 -24 -18
-123 -21 -165 -1 -11 -4 -24 -7 -30 -7 -12 -2 -452 5 -515 3 -25 8 -58 11 -75
3 -16 8 -46 11 -65 7 -47 10 -62 17 -80 3 -8 8 -31 11 -50 2 -19 10 -51 16
-70 6 -19 14 -48 16 -65 3 -16 10 -34 15 -39 5 -6 9 -20 9 -32 0 -13 5 -26 10
-29 6 -3 10 -15 10 -26 0 -20 3 -27 36 -89 10 -19 17 -37 17 -40 -1 -3 8 -25
19 -50 12 -25 22 -50 23 -56 2 -6 20 -38 41 -71 32 -52 41 -60 56 -52 10 5 18
8 18 5 0 -2 27 9 60 25 33 16 63 29 68 30 4 0 15 8 26 17 10 9 20 16 22 14 6
-4 68 29 75 40 3 5 15 10 27 11 12 0 24 7 26 14 3 7 12 13 21 13 8 0 15 5 15
11 0 5 5 7 11 3 22 -13 -13 112 -36 128 -5 4 -6 8 -2 8 4 0 2 10 -5 23 -6 12
-13 27 -14 32 -2 9 -25 71 -49 130 -4 11 -10 29 -12 39 -2 11 -8 25 -14 33 -6
7 -9 13 -5 13 3 0 0 16 -8 35 -8 19 -12 35 -8 35 3 0 1 5 -5 11 -6 6 -9 18 -6
25 3 8 0 21 -7 29 -7 8 -10 15 -8 15 3 0 2 19 -3 43 -18 90 -20 124 -7 126 7
1 112 3 233 4 l219 2 1 -97 c0 -54 4 -98 8 -98 4 0 3 -8 -2 -18 -6 -11 -6 -24
-1 -32 5 -9 5 -19 -2 -27 -6 -7 -6 -13 -1 -13 5 0 9 -9 9 -20 0 -11 -4 -20 -9
-20 -4 0 -5 -5 -1 -12 12 -19 11 -78 -1 -78 -7 0 -7 -3 0 -8 7 -4 10 -222 10
-635 0 -346 3 -637 7 -648 4 -10 12 -19 17 -19 5 0 36 -18 69 -40 33 -21 77
-49 98 -60 22 -12 57 -31 79 -44 151 -85 174 -94 181 -77 12 29 21 382 10 400
-4 6 -4 11 1 11 4 0 8 814 8 1810 0 995 -4 1810 -8 1810 -5 0 -5 5 -1 11 11
18 2 338 -11 358 -8 14 -11 14 -68 -9z m-400 -1038 c1 -42 3 -77 3 -77 1 0 2
-188 4 -417 2 -372 0 -418 -13 -419 -9 0 -108 0 -220 0 -180 1 -205 3 -216 18
-7 9 -11 22 -9 28 1 5 5 39 8 75 3 36 9 78 15 93 6 15 8 27 5 27 -4 0 -1 7 6
15 7 9 10 18 7 22 -3 3 0 18 8 34 9 16 14 32 13 36 -1 4 6 23 15 40 10 18 18
36 19 40 1 9 14 43 38 98 10 22 17 43 16 46 0 4 7 16 17 27 10 11 19 26 21 34
2 12 8 23 43 83 7 11 20 35 29 53 9 17 21 32 26 32 5 0 7 4 4 9 -4 5 -3 11 1
13 12 5 53 66 53 78 0 6 4 9 9 5 5 -3 12 4 16 15 3 11 11 20 16 20 5 0 9 6 9
14 0 14 42 47 50 39 3 -3 6 -39 7 -81z"/>
<path d="M3329 4598 c-8 -479 -14 -2387 -7 -2393 2 -2 143 -7 314 -10 170 -4
347 -8 394 -10 47 -2 116 -4 154 -4 l69 -1 -7 -57 c-19 -172 -155 -522 -285
-735 -50 -84 -134 -187 -144 -178 -6 5 -12 82 -22 240 -17 280 -19 294 -55
303 -37 10 -408 3 -419 -8 -6 -6 -14 -84 -18 -175 -13 -294 -4 -1314 12 -1340
16 -25 85 6 228 101 84 56 262 191 312 236 11 10 45 39 76 65 161 135 318 313
445 505 81 121 193 333 229 433 55 150 98 311 115 430 6 41 14 86 17 100 3 14
7 145 10 293 l5 267 -33 1 c-592 11 -870 23 -899 39 -21 11 -23 41 -23 465 0
523 0 528 52 469 60 -69 87 -114 264 -444 57 -107 75 -130 101 -130 33 0 188
47 289 87 120 48 126 58 92 160 -56 168 -194 415 -330 588 -181 230 -541 542
-824 714 -46 28 -90 51 -98 51 -9 0 -13 -18 -14 -62z"/>
</g>
</svg>
